<?xml version="1.0" encoding="utf-8"?>
<!-- Generator: Adobe Illustrator 25.0.1, SVG Export Plug-In . SVG Version: 6.00 Build 0)  -->
<svg version="1.1" id="Layer_1" xmlns="http://www.w3.org/2000/svg" xmlns:xlink="http://www.w3.org/1999/xlink" x="0px" y="0px"
	 viewBox="0 0 2292 2496" style="enable-background:new 0 0 2292 2496;" xml:space="preserve">
<style type="text/css">
	.st0{fill:#F11A23;}
</style>
<g transform="translate(0.000000,2496.000000) scale(0.100000,-0.100000)">
	<path class="st0" d="M16279,24956c-2-3-65-6-139-7c-155-3-454-21-545-34c-16-2-61-7-100-10c-192-16-657-85-953-141
		c-291-54-492-99-817-179c-965-238-1847-527-3241-1060l-325-124l-162,54c-415,138-962,251-1597,329c-300,37-306,37-575,60
		c-203,17-284,23-430,31c-60,3-135,8-165,10s-165,7-300,10s-308,8-385,10c-130,5-799-9-980-20c-293-18-416-26-460-30
		c-27-3-104-10-170-15c-193-17-595-66-815-100c-192-29-577-104-770-151c-862-207-1526-516-1919-893c-146-141-445-504-622-756
		c-96-137-117-168-179-265c-307-483-495-949-575-1429c-44-267-54-414-50-756c4-299,21-577,61-970c25-252,121-537,280-831
		c364-671,1132-1530,2069-2311c99-83,185-156,192-162s27-137,48-316c20-168,38-318,40-335c2-16,9-70,15-120c5-49,26-220,45-380
		c60-498,63-527,131-1090c81-680,80-672,99-830c8-71,22-188,30-260c9-71,17-141,20-155c2-14,18-146,35-295c33-289,34-296,50-425
		c16-125,33-272,65-540c2-19,8-73,14-120c30-244,62-512,111-930c23-190,43-358,45-375c5-31,36-296,80-670c15-121,28-230,30-243
		s7-54,11-91l6-69l42-5c22-4,131-20,241-36c448-67,950-130,1400-176c83-8,173-17,200-20c28-3,70-7,95-10s68-7,95-10
		c28-3,154-14,280-25c127-11,253-22,280-25c28-2,118-9,200-15c83-6,173-12,200-15c28-3,127-9,220-15c202-12,315-19,410-25
		c39-2,138-7,220-10c83-3,175-8,205-10s154-7,275-10c121-4,252-8,290-10c301-16,1547-11,1955,9c74,3,185,9,245,11c61,3,144,7,185,10
		s118,7,170,10s120,8,150,10c30,3,87,7,125,10c39,2,104,7,145,10c72,6,341,31,425,40c22,2,69,7,105,10c432,42,1201,155,1775,261
		c1855,342,3901,952,5560,1657l150,64v49c-1,93-17,639-20,689c-2,28-6,172-10,320c-3,149-8,313-10,365s-7,201-10,330s-8,282-10,340
		s-7,213-10,345s-7,303-10,380c-7,197-22,700-30,990c-9,338-15,557-20,685c-2,69-7,222-10,340s-8,271-10,340c-3,69-7,224-10,345
		s-8,272-10,335s-7,225-10,360s-7,297-10,360s-8,208-11,321l-6,207l73,47c401,259,903,736,1221,1160c449,598,738,1301,808,1965
		c6,58,13,130,17,160c10,95,7,520-6,640c-86,832-378,1613-921,2468c-368,578-818,990-1404,1284c-489,246-1139,412-1766,453
		c-52,4-113,8-134,10C16738,24952,16285,24962,16279,24956z M16669,24235c178-29,325-56,327-58c6-6,12-58,39-372
		c29-333,102-1146,110-1220c5-49,19-214,31-345c3-36,11-130,19-210c7-80,16-181,20-225c3-44,8-96,10-115s6-64,9-100s10-114,16-175
		c6-60,15-164,20-230c6-66,12-136,15-155c2-19,7-71,10-115c4-44,13-150,21-235s17-184,20-220c2-36,7-81,9-100s7-69,10-110
		s10-115,15-165c5-49,12-126,15-170s7-96,10-115c2-19,7-66,10-105c7-80,14-160,20-225c3-25,7-72,9-105c3-33,10-109,16-170
		c5-60,32-364,60-675s59-659,70-774s18-212,15-216c-2-4-42-10-88-14s-95-9-108-11s-96-11-184-19c-159-15-708-71-796-81
		c-44-5-47-3-52,23c-3,15-31,146-61,292s-96,461-146,700c-49,239-106,512-125,605c-20,94-60,285-89,425s-120,578-202,972
		s-150,715-153,713c-2-2,2-55,8-117c9-90,55-601,86-953c11-120,16-181,20-215c2-19,7-69,10-110s8-91,10-110s7-66,10-105
		c3-38,8-90,10-115c3-25,9-101,15-170s24-271,40-450c35-381,36-398,50-555c6-66,12-138,15-160c2-22,7-76,10-120c4-44,8-90,10-102
		s7-68,10-125c4-57,9-105,10-108c3-5,17-179,19-235l1-29l-220-22c-121-12-290-29-374-38c-111-11-157-13-162-5c-3,6-10,58-13,115
		c-4,57-9,114-11,127c-2,12-6,58-10,102c-3,44-8,100-10,125c-3,25-14,149-25,275c-11,127-22,248-25,270c-2,22-9,99-15,170
		c-10,127-16,193-25,285c-3,25-7,72-10,105c-7,84-31,351-60,675c-26,287-31,349-40,453c-3,34-8,82-10,107c-3,25-14,149-25,275
		c-11,127-22,253-25,280c-2,28-9,106-15,175s-12,141-15,160c-4,38-11,118-20,220c-3,36-9,112-15,170c-23,255-49,544-85,960
		c-11,120-36,398-40,440c-7,68-33,368-80,900c-3,30-10,102-15,159c-6,57-10,120-10,140v37l238,47c130,27,365,74,522,107
		c157,32,286,57,288,55c3-2,143-617,317-1395c58-256,127-566,155-690c51-227,374-1660,455-2020c24-107,67-296,95-420s63-280,78-347
		c15-68,30-123,35-123s6,8,3,18c-2,9-8,58-11,107c-4,50-8,97-10,105c-1,8-6,56-9,105c-4,50-11,126-16,170s-11,116-15,160
		c-3,44-8,96-10,115s-7,69-10,110s-8,95-10,120c-10,108-16,178-20,220c-2,25-7,74-10,110s-8,85-10,110s-7,72-10,105s-9,107-15,165
		c-5,58-14,164-20,235c-6,72-13,148-15,170c-3,22-9,94-15,160s-12,140-15,165c-2,25-7,74-10,110s-8,85-10,110c-9,96-16,173-35,395
		c-11,127-22,250-25,275c-2,25-7,77-10,115c-4,39-8,86-10,105s-7,64-10,100s-12,142-20,235c-8,94-18,199-21,235s-7,81-9,100
		s-7,69-10,110s-8,91-10,110c-3,19-9,94-15,165c-6,72-13,150-16,175c-6,58-24,263-24,273c0,4,10,5,23,2
		C16335,24292,16491,24265,16669,24235z M17760,23954c168-65,307-119,310-121c10-8-345-1052-359-1055c-20-4-309,16-314,22
		c-3,3-8,131-11,285c-4,154-9,314-11,355s-7,201-11,355c-3,154-8,283-11,288c-13,21,12,25,55,8C17434,24081,17592,24019,17760,23954
		z M13812,23653c15-82,101-569,192-1083s181-1025,200-1135c48-273,65-367,82-455c13-69,217-1224,284-1610c16-91,59-331,95-535
		c175-983,262-1478,271-1540c6-39,5-41-22-43c-40-3-279-27-579-57c-137-14-263-26-279-27c-37-4-24-63-131,597
		c-132,812-128,790-149,788c-133-11-175-15-196-18c-31-4-113-13-205-21c-38-3-71-7-71-8c-1,0-5-237-8-526c-8-622-14-881-21-888
		c-2-3-87-13-187-23c-187-18-441-45-536-55l-53-6l5,563c8,752,15,1726,22,3024c4,589,8,1073,10,1076c2,4,5,323,6,710s4,771,7,853
		l6,149l610,208c336,114,613,208,616,208C13784,23800,13798,23734,13812,23653z M18844,23185c314-92,599-345,756-669
		c26-56,74-157,106-226c31-69,100-213,151-320c84-173,94-200,89-235c-3-22-13-125-21-230c-9-104-17-212-20-240c-2-27-7-81-10-120
		c-3-38-8-88-10-110s-7-78-10-125c-4-47-8-95-10-106c-2-12-6-67-10-123s-11-104-15-106c-4-3-17,17-28,43c-44,101-169,354-250,507
		c-359,675-646,1035-821,1035c-54,0-84-18-135-79c-67-80-85-154-67-272c17-107,52-199,107-276c26-37,143-162,259-278
		c281-278,453-460,519-548c146-195,300-502,372-743c25-83,27-101,26-279c-2-602-146-1097-433-1486c-109-147-449-466-559-523
		c-120-62-126-63-770-131c-80-9-156-17-170-18l-25-2l-26,270c-15,149-30,304-34,345c-3,41-8,89-10,105c-2,17-6,62-10,100
		c-3,39-8,86-11,106l-5,37l73,7c420,38,465,45,527,82c147,85,367,366,451,576c65,162,74,257,40,409c-78,352-272,690-565,982
		c-96,95-176,163-486,408c-112,89-124,110-170,285c-53,206-62,288-63,538c-1,256,5,308,61,480c141,437,340,755,543,867
		c132,74,251,99,445,93C18729,23213,18773,23207,18844,23185z M5459,22967c8-84,15-159,16-167c2-8,6-53,10-100c3-47,13-154,21-239
		c8-84,12-156,9-159c-3-4-104-16-223-28c-517-53-615-64-620-69c-5-4,28-413,44-545c2-19,15-165,29-325c37-414,50-570,82-917l27-308
		h26c28,0,245,21,470,45c80,8,195,20,255,25c61,6,129,13,152,16c31,5,44,3,47-7c3-8,12-102,20-209c22-262,35-416,41-470
		c2-25,7-73,10-107l6-61l-38-6c-21-3-65-8-98-11s-78-8-100-10c-22-3-177-19-345-35c-168-17-316-33-330-35s-28-4-32-4c-5-1-6-16-3-33
		c2-18,6-62,9-98c16-188,26-299,31-330c2-19,7-71,10-115s8-98,11-120c2-22,13-146,24-275s22-255,24-280c3-25,8-74,11-110
		s8-85,10-110c3-25,14-151,25-280s22-251,25-270c2-19,4-46,5-59c0-22,3-23,48-18c41,6,252,28,397,42c28,3,136,14,240,25
		c105,11,213,23,242,25c61,7,59,11,68-125c3-52,13-165,21-250c7-85,16-184,20-220c3-36,9-110,15-164c5-55,7-101,5-103
		c-4-4-251-30-1381-144c-165-16-338-34-385-39c-142-16-148-15-154,23c-4,29-29,286-41,442c-3,33-23,258-45,500s-57,643-80,890
		c-22,248-42,473-45,500c-3,28-19,203-35,390c-48,541-58,654-100,1120c-22,242-42,463-45,490c-3,28-14,154-25,280
		c-11,127-22,255-25,285c-7,68-10,109-35,390c-11,124-22,245-25,270c-5,55-13,145-20,225c-6,73-23,270-30,345c-3,30-7,78-10,105
		c-3,28-7,75-10,105c-2,30-9,102-15,160s-11,138-13,179l-2,75l160,23c88,12,306,43,485,69c315,44,334,46,630,51c168,3,306,6,307,7
		c1,0,48,2,105,3l104,2L5459,22967z M5885,23106c55-4,138-9,185-12c47-2,112-6,145-9c33-2,116-7,185-10c69-4,134-8,145-10
		c12-2,86-6,165-10c80-4,154-9,165-11c11-3,76-4,145-4c198-1,307-24,465-100c166-80,398-275,462-390c118-210,223-738,303-1525
		c14-139,5-524-14-628c-72-382-217-587-513-724c-40-18-73-37-73-42s44-9,98-9c325-3,525-190,636-592c27-97,54-275,71-460
		c3-36,8-85,10-110c3-25,12-126,20-225c9-99,17-196,20-215c2-19,9-91,15-160s12-145,15-170c2-25,7-72,10-105c44-483,84-666,191-879
		c19-38,33-70,32-71c-2-2-28-5-58-9c-233-24-366-38-500-51c-85-9-208-21-273-28c-64-7-121-10-126-7c-29,19-90,208-124,385
		c-28,142-51,319-67,520c-6,72-13,148-15,170c-3,22-16,171-30,330c-28,324-27,321-61,570c-31,236-63,349-124,443
		c-31,49-52,68-107,99c-67,37-70,38-170,37c-57,0-105-2-107-5c-3-3,8-149,24-325c16-175,40-452,55-614c40-458,94-1059,100-1120
		c9-95,34-381,41-467c5-66,4-83-7-87c-8-2-88-11-179-20s-277-28-415-41c-137-14-264-27-282-30c-38-7-39-4-48,120c-3,50-8,106-10,125
		s-9,91-15,160s-22,247-35,395c-14,149-31,349-40,445c-8,96-17,198-20,225c-7,67-43,462-55,605c-17,201-21,244-25,280
		c-2,19-7,69-10,110s-10,116-15,165c-5,50-12,124-15,165s-10,118-15,170s-17,178-25,280c-9,102-17,201-20,220c-2,19-6,67-10,105
		c-3,39-8,93-11,120c-2,28-13,151-24,275s-22,250-25,280c-17,188-26,282-30,335c-3,33-8,80-10,105s-7,74-10,110s-8,85-10,110
		c-3,25-14,153-25,285s-23,258-25,280c-7,68-14,147-20,220c-3,39-13,140-21,225c-7,85-16,184-19,220s-8,88-10,115
		c-3,28-12,127-20,220c-9,94-18,191-21,217l-6,47l43-4C5765,23113,5830,23109,5885,23106z M11795,22885c4-55,8-106,10-115
		c2-14,7-72,21-235c5-70,32-368,39-440c3-27,14-151,25-275s22-247,24-275c3-27,8-79,11-115s8-85,10-110s7-72,10-105s9-107,15-165
		c5-58,12-141,15-185s8-96,10-115s7-62,10-95s14-157,25-275c10-118,22-249,25-290s10-118,15-170c6-52,17-171,25-265
		c8-93,17-195,20-225s23-257,45-505c22-247,42-475,45-505s18-206,35-390s32-355,35-380c2-25,7-79,10-120s8-91,10-110
		c12-106,37-421,34-424c-2-3-51-9-109-15s-125-14-150-16c-25-3-135-14-245-25s-221-22-247-26c-25-3-48-1-51,3c-2,4-7,49-11,98
		c-4,50-13,160-22,245c-8,85-19,207-24,270s-12,135-15,160s-14,151-25,280s-23,258-25,285c-3,28-16,176-30,330
		c-13,154-29,327-35,385c-5,58-12,132-15,165c-20,228-26,296-30,345c-17,187-106,1176-111,1230c-3,36-9,108-14,160
		c-10,100-11,115-35,385c-8,94-17,188-20,210c-2,22-7,83-11,135c-3,52-8,97-10,99s-5-40-5-95c-1-54-3-117-4-139s-5-179-9-350
		c-4-170-9-346-11-390s-7-192-10-330c-3-137-7-306-10-375c-2-69-7-235-10-370s-7-292-10-350s-7-208-10-335c-7-294-14-541-20-730
		c-3-82-7-253-10-380c-3-126-7-286-10-355c-2-69-7-242-11-385c-3-143-7-261-8-262s-53-7-116-13s-131-12-150-14c-32-4-88-10-200-21
		c-25-3-112-12-194-20c-81-9-150-14-152-12s-148,723-324,1603c-575,2873-613,3059-619,3066c-4,4,8-149,25-340c18-191,35-385,38-432
		c4-47,9-101,11-120c3-19,21-215,40-435s37-422,40-450c5-51,50-548,60-665c3-36,8-85,10-110s6-70,9-100s10-111,16-180s13-141,15-160
		s7-66,10-105c5-70,71-807,80-900c3-27,9-104,15-170s13-142,15-170c21-215,34-379,30-385c-2-4-69-13-147-20c-79-7-150-14-158-15
		c-8-2-55-6-105-11c-49-4-92-8-95-9c-8-2-193-19-215-20c-18,0-21,8-26,75c-6,76-16,178-24,260c-3,25-9,101-15,170s-13,143-15,165
		s-7,72-10,110c-3,39-8,93-11,120c-5,62-82,918-89,1000c-9,104-45,498-50,550c-3,28-9,102-15,165c-11,131-16,183-30,330
		c-5,58-14,164-20,235c-6,72-13,148-15,170c-3,22-16,168-30,325c-34,385-35,398-40,450c-3,25-12,124-20,220c-18,204-24,268-30,330
		c-3,25-7,72-10,105c-8,96-64,735-70,790c-2,28-7,79-10,115s-12,135-20,219c-8,85-13,157-10,159c2,2,57-7,122-21s282-60,483-102
		s437-91,525-110s180-37,203-41c31-5,46-13,52-28c5-12,41-199,80-416c131-732,171-954,195-1085c13-71,81-445,150-830
		c70-385,155-857,190-1050c35-192,69-385,76-427c7-43,16-78,20-78s8,80,9,178c0,97,2,224,5,282c2,58,7,283,10,500s8,458,10,535
		s7,320,10,540s8,420,10,445s8,268,11,540c4,272,9,520,10,550s2,123,3,206l1,151l531,233c293,128,579,254,638,280
		c70,31,108,43,112,36C11785,22990,11791,22940,11795,22885z M3435,22815c3-38,10-113,15-165s12-129,15-170s8-91,10-110s7-66,10-105
		c3-38,8-92,11-120c5-55,68-771,84-955c6-63,12-137,15-165c8-77,34-361,50-555c8-96,17-195,20-220c2-25,9-99,15-165s13-140,15-165
		c4-38,20-218,40-450c3-30,16-179,30-330c34-376,94-1051,101-1130c3-36,9-108,14-160s12-126,15-165c4-38,12-135,20-215
		s17-185,20-235c4-49,8-97,10-105c1-8,6-55,9-105c4-49,9-97,11-105s6-60,10-115c3-55,8-113,11-130c2-16,11-109,19-205s18-208,21-247
		c5-59,4-73-7-73c-8,0-50-4-94-9c-44-6-111-12-150-16c-65-5-120-10-205-20c-19-2-66-7-105-10c-38-3-86-8-105-10c-19-3-57-7-85-9
		c-27-3-77-8-111-11l-60-7l-18,204c-10,112-19,214-21,228s-6,61-10,105c-3,44-12,150-20,235s-17,189-20,230c-4,41-13,143-21,225
		c-8,83-23,254-34,380c-19,218-64,737-75,855c-3,30-10,102-15,158c-5,57-11,106-13,108c-2,3-71-2-153-11s-194-20-249-25
		c-292-28-477-49-482-54s40-182,71-276c128-393,340-714,601-910c103-77,94-61,110-210c2-25,9-88,15-140c17-147,17-153,56-538
		c20-200,33-366,30-369c-9-9-206,93-343,179c-369,230-717,552-980,908c-416,563-663,1225-744,2000c-18,162-18,516-1,650
		c89,700,491,1430,1133,2055c121,118,328,299,335,292c1-1,8-67,14-147s13-163,15-185s7-76,10-120s10-132,15-195
		c11-127,17-198,25-310c3-41,8-94,11-118c5-42,2-46-60-113c-318-343-527-794-540-1161c-3-103,6-227,24-325l12-64l47,5
		c67,8,337,35,401,41c82,7,448,44,499,51l43,6l-7,86c-3,48-8,101-10,117c-2,17-6,59-10,95c-41,483-48,560-60,680c-3,25-7,77-10,115
		c-4,39-13,140-21,225c-7,85-16,182-19,215c-6,72-3,44-65,720c-27,296-48,541-46,542c4,5,901,391,903,389
		C3428,22886,3431,22854,3435,22815z M17980,17317c0-11,14-167,45-497c16-178,57-622,65-720c15-167,20-230,25-275
		c13-126,27-317,23-320c-3-3-228-28-450-50l-56-6l-548,590c-302,325-549,589-550,588c-2-2,33-412,50-592c34-371,59-676,53-681
		c-12-13-461-53-468-42c-4,6-10,51-13,102c-4,50-11,136-16,191c-12,121-59,654-66,745c-3,36-9,106-14,155c-5,50-12,124-15,165
		c-4,41-8,91-10,110s-7,73-10,120c-4,47-10,116-14,153s-5,70-2,71c3,2,38,7,76,11c39,3,84,8,100,10c17,2,50,6,75,9
		c74,9,213,20,250,21c34,0,55-21,564-572c290-315,530-573,533-573c6,0,1,64-32,420c-3,30-12,132-20,225c-8,94-17,193-20,220
		c-13,125-34,379-32,381c1,1,92,11,202,23c201,21,254,27,268,30C17977,17329,17980,17324,17980,17317z M15230,16985
		c133-42,233-108,313-205c128-155,109-416-42-564c-26-25-80-64-121-85l-73-39l34-7c103-23,203-94,244-175c34-66,42-106,64-302
		c22-199,37-242,95-273c28-15,36-26,36-47c0-16-6-28-12-28c-7,0-101-9-208-20s-228-23-267-27l-73-6l-20,46c-31,69-57,181-65,277
		c-16,190-50,278-125,320c-40,22-58,25-160,27c-63,0-171-5-240-12c-69-8-172-19-230-25c-195-20-189-18-185-43c2-12,6-56,9-97
		c4-41,9-100,12-130c34-356,41-456,30-462c-6-4-29-8-51-9c-22,0-51-2-65-4c-29-5-348-35-366-35c-7,0-14,32-18,93c-4,50-9,106-11,122
		c-2,17-9,89-15,160c-12,148-17,201-35,395c-3,30-10,111-15,180c-6,69-13,143-15,165s-7,72-10,110c-3,39-8,88-11,110
		c-2,22-9,99-14,170c-12,146-18,211-26,272c-6,48-6,48,106,58c83,7,280,27,495,49c77,9,187,20,245,25c58,6,134,13,170,16
		c36,4,97,10,135,15C14866,17015,15167,17005,15230,16985z M13134,16808c9-45,27-290,22-296c-6-5-359-44-511-57c-44-3-91-8-105-10
		c-21-4-318-35-598-62l-63-6l5-46c3-25,11-109,17-186s12-141,14-143c1-2,187,16,411,38c225,23,454,46,509,51s134,14,175,19
		s76,8,77,6c5-5,35-318,30-321c-1-1-101-11-222-23s-353-36-515-52c-162-17-326-33-365-36c-38-4-71-7-71-8c-1,0,8-105,19-232
		c18-200,23-231,36-228c9,2,221,24,471,49s538,54,639,65s192,20,201,20c16,0,19-14,26-107c5-60,9-135,9-168v-60l-215-22
		c-118-12-285-29-370-37s-400-40-699-71s-545-55-546-53c-2,2-6,30-9,63c-13,131-37,397-47,515c-8,106-21,251-44,495
		c-9,97-26,281-30,335c-3,30-9,102-15,160c-5,58-13,140-16,183l-7,77l39,1c22,0,48,2,59,4c18,3,60,8,340,36c55,5,359,36,675,68
		C13137,16839,13128,16838,13134,16808z M10434,16490c157-39,284-115,392-233c76-83,119-156,155-259c45-131,62-253,56-403
		c-5-158-30-263-92-392c-115-238-324-402-602-474c-98-25-343-56-658-84c-27-3-158-16-290-29c-132-14-260-26-285-28l-45-3l-7,75
		c-3,41-9,109-12,150c-4,41-8,91-11,110c-2,19-7,64-9,100c-6,71-29,325-75,830c-17,179-33,361-36,405s-8,97-11,118c-5,35-4,37,23,38
		c15,0,37,2,48,4c11,1,52,6,90,10c39,3,201,19,360,36c160,16,317,32,350,35s71,8,85,10s84,7,155,11c72,3,131,6,132,7
		C10157,16531,10372,16506,10434,16490z M7750,16309c373-46,663-249,783-549c96-242,96-569-1-782c-46-101-100-177-186-264
		c-94-93-177-152-290-204c-346-162-905-192-1217-66c-164,66-361,227-437,358c-92,156-133,323-133,538c1,256,79,450,253,622
		c131,130,234,194,409,256C7156,16298,7515,16337,7750,16309z M5820,16072c0-10,9-115,20-233s27-288,35-379s22-241,30-335
		c9-93,22-246,30-340c14-162,21-232,30-320c2-22,7-74,10-116l7-76l-43-7c-68-10-432-46-435-43c-1,1-9,85-18,187s-19,205-21,230
		c-3,25-9,101-15,170s-13,141-15,160s-7,69-10,110c-6,80-23,270-30,335c-2,22-7,81-10,130c-11,173-15,174-47,20
		c-94-459-122-595-168-820c-100-488-113-550-121-561c-5-6-71-17-146-24c-76-7-146-14-155-16c-9-1-56-6-105-9l-88-7l-285,711
		c-156,391-288,711-293,711c-4,0-6-4-3-8c4-7,30-266,51-517c10-117,45-511,50-560c14-127,33-380,31-383c-2-2-93-12-202-22
		c-110-11-215-22-236-25l-36-5l-6,48c-3,26-8,79-11,117c-3,39-7,90-10,115c-2,25-7,72-10,105c-14,162-36,406-40,455
		c-3,30-19,208-35,395c-17,187-32,363-35,390c-2,28-7,85-11,128l-6,77l28,1c16,0,40,2,54,4c117,18,654,65,660,59
		c7-8,196-465,503-1218c34-82,62-145,63-140c2,5,34,160,73,344c160,767,232,1104,235,1108c2,2,87,12,187,22c101,11,240,26,309,34
		c69,7,151,14,183,15C5812,16090,5820,16087,5820,16072z M18405,15138c-3-18-35-269-70-558c-36-289-109-871-162-1295l-96-770l12-160
		c6-88,14-178,16-200c3-22,20-218,40-435c19-217,37-420,40-450s14-158,25-285c11-126,23-252,25-280c9-82,45-504,51-585l6-75
		l-438-153c-240-83-438-151-439-150c-2,2-8,66-14,143s-14,160-16,185s-7,72-10,105c-2,33-23,260-45,505s-42,477-46,515
		c-3,39-7,81-9,95s-6,59-10,100c-3,41-8,95-10,120c-3,25-9,99-15,165s-12,143-15,170c-5,45-23,251-41,459c-6,70-15,97-81,240
		c-41,88-97,208-123,266s-73,158-104,224c-31,65-56,119-56,121c0,1-24,54-54,116c-29,63-109,233-176,379s-228,492-357,769
		c-128,277-232,505-231,507c3,2,135,17,263,29c28,3,111,12,185,20s167,17,205,20c39,4,80,8,91,10c12,2,61,6,110,10s92,9,97,12
		c10,6,5,19,304-783l268-721l12,146c6,80,14,184,18,231c3,47,10,139,15,205s12,165,15,220s8,120,10,145s7,81,10,125
		c13,203,37,490,41,496c2,4,43,10,91,14c49,4,95,8,103,10c8,1,49,6,90,10s149,15,240,25c91,9,182,18,203,19
		C18410,15170,18411,15170,18405,15138z M15350,14810c182-38,308-100,418-204c230-217,350-571,354-1042c1-173-7-251-38-380
		c-56-235-150-386-308-499c-66-46-178-105-238-124c-62-20-44-31,51-31c404,0,624-247,690-775c15-119,47-475,66-725c4-41,8-86,10-100
		s7-63,10-110c8-122,23-259,42-380c25-168,193-794,244-909c11-24,18-45,17-46c-7-5-814-225-825-225c-40,0-295,761-362,1080
		c-28,134-31,157-56,455c-67,778-93,952-160,1084c-36,72-72,109-134,140c-71,36-124,45-218,36l-75-7l6-71c4-40,9-90,11-112
		c3-22,16-173,30-335s30-335,35-385c5-49,15-151,20-225c6-74,17-205,25-290c17-173,45-490,75-835c21-241,28-314,35-380
		c9-79,19-211,19-259l1-49l-450-99c-247-54-454-97-459-95c-11,4-11,6-20,117c-4,47-11,130-16,185c-12,121-38,410-51,560
		c-5,61-11,133-14,160c-3,28-12,129-20,225s-22,247-30,335s-22,239-30,335c-9,96-17,195-20,220c-2,25-7,74-10,110s-8,85-10,110
		c-3,25-10,104-15,175c-6,72-22,247-35,390c-25,262-38,409-74,830c-12,127-23,253-25,280c-12,120-53,576-66,735c-6,69-12,141-15,160
		c-2,19-7,69-10,110s-8,91-10,110s-6,64-9,100c-4,36-15,168-26,294c-12,126-19,231-16,233c4,4,722,79,1026,108c36,3,74,8,85,10
		s63,7,115,11c52,3,97,9,100,11C14999,14836,15293,14822,15350,14810z M13431,14654c1-8,2-17,3-21c1-5,5-51,10-103
		c4-52,9-108,11-125c2-16,6-59,9-95s13-141,21-234c9-92,14-170,12-173c-3-2-69-10-148-18s-234-24-344-35s-227-23-260-26
		c-93-8-208-24-213-28c-2-3,3-85,12-183s23-254,31-348c8-93,17-190,20-215c8-83,14-153,35-395c40-451,67-735,72-740c3-3,72,2,154,10
		s174,18,204,21s71,7,90,9c19,3,130,14,245,25c116,11,219,22,229,23c26,3,31-21,51-243c22-261,24-283,35-399c6-57,8-106,6-108
		c-4-5-96-17-201-27c-72-7-634-64-690-70c-22-3-44-5-49-5c-8-1-3-114,14-271c5-47,14-143,20-215c6-71,12-150,15-175
		c2-25,7-72,10-105s11-130,19-215s18-195,22-245c5-49,8-92,9-95s5-56,10-118c5-77,12-115,21-119c12-4,263,17,424,37
		c41,5,107,12,145,15c39,3,135,12,214,21c79,8,145,14,147,12c8-9,27-483,28-703l1-99l-909-183c-500-101-911-182-913-180
		c-5,6-11,63-38,372c-14,160-27,308-30,330c-2,22-6,69-10,105c-52,588-76,854-80,895c-9,91-25,269-30,335c-3,36-8,85-10,110
		c-3,25-9,101-15,170s-13,143-15,165c-5,49-12,128-20,215c-3,36-14,164-25,285s-22,247-25,280s-8,80-10,105s-7,72-10,105
		s-9,107-15,165c-5,58-14,164-20,235c-6,72-13,148-15,170c-3,22-14,141-25,265c-29,331-30,341-35,390c-3,25-14,153-25,285
		s-23,258-25,280c-7,68-14,147-20,220c-9,100-34,371-40,428c-7,54-8,53,85,61c91,8,251,24,410,41c74,8,162,17,195,20
		c53,4,681,68,810,81c63,7,374,39,398,41C13422,14668,13431,14662,13431,14654z M11254,14433c-2-10-35-189-74-398
		c-65-358-169-920-246-1335c-18-102-48-264-66-361l-31-176l459-1836c252-1010,456-1838,454-1840c-5-5-210-21-405-32
		c-55-3-122-8-150-10c-59-5-258-17-329-19l-49-1l-78,315c-461,1853-599,2390-594,2320c5-68,29-341,40-450c2-25,7-74,9-110
		c3-36,13-139,21-230s24-271,35-400s29-332,40-450s22-244,25-280s7-85,10-110c2-25,7-74,10-110s8-85,10-110c26-283,36-422,31-427
		c-8-8-35-9-517-18l-396-7l-6,69c-4,37-16,154-27,258c-11,105-29,278-40,385s-22,215-25,240s-14,131-25,235c-44,427-62,601-85,820
		c-13,127-45,428-70,670s-55,523-65,625c-27,248-29,271-35,333c-3,28-8,68-10,87s-7,64-10,100c-4,36-15,144-25,240
		c-11,96-22,207-25,245c-3,39-8,81-10,95c-3,14-9,75-15,135c-6,61-13,128-15,150c-5,42-60,564-71,675c-4,36-16,156-28,268
		c-12,111-19,206-16,211c3,4,61,13,130,20s271,27,450,45c179,19,326,33,326,32c2-1,29-290,39-416c8-90,15-172,20-220
		c3-25,12-126,20-225s17-200,20-225c6-59,8-87,55-606c22-243,40-457,40-477c0-79,18-39,38,86c12,73,60,358,107,635
		c47,276,123,728,170,1003c46,276,86,503,87,504c4,3,40,7,418,46c168,17,337,34,375,39C11263,14451,11259,14452,11254,14433z
		 M8195,14030c9-52,28-149,41-215c12-66,50-259,83-430c33-170,90-463,126-650c37-187,93-477,125-645s75-387,94-487
		c75-384,111-567,231-1188c68-352,166-860,219-1130c154-794,176-911,176-929c0-16-8-17-77-12c-43,3-148,10-233,16s-177,12-205,15
		c-27,2-160,12-295,21s-248,19-251,23c-5,6-13,60-59,441c-35,294-120,989-147,1211c-17,136-31,216-37,214s-40-6-76-9s-143-13-239-23
		l-173-17l6-460c5-363,9-1288,7-1354c-1-9-11-11-33-8c-37,6-52,8-368,36c-124,11-238,22-255,25c-16,2-68,7-115,11s-92,8-100,10
		c-8,1-23,3-34,3c-18,1-18,8-12,139c4,75,9,162,11,192c5,63,9,143,30,530c8,151,17,309,20,350c2,41,7,120,10,175s8,136,10,180
		c4,77,9,162,20,358c11,193,16,274,20,347c3,41,7,122,10,180s7,134,10,170c2,36,7,117,10,180s8,144,10,180c3,36,9,155,15,265
		s12,234,15,275c2,41,7,120,10,175s8,134,10,175c3,41,10,158,15,260c13,227,28,508,35,615c2,44,7,130,10,190c3,61,8,135,10,165
		s7,114,10,185c6,131,13,216,17,221c3,1,364,39,623,65c50,4,176,17,280,28c105,11,226,23,270,27s82,8,84,10
		C8169,14146,8178,14119,8195,14030z M5380,13804c327-49,559-255,669-592c38-114,68-266,85-427c18-170,18-513,0-630
		c-36-237-131-416-279-525c-56-41-168-100-227-119c-26-9-38-19-38-31c0-16,12-18,113-22c158-6,251-44,360-147
		c146-138,240-391,272-736c4-38,8-81,10-95s7-74,11-135c3-60,8-121,10-135s6-137,9-275c5-284-2-350-60-534c-19-62-44-162-55-223
		c-32-180-33-181-145-297c-198-205-284-249-588-301c-141-24-197-24-422-5c-93,8-204,17-245,20c-83,6-178,14-255,20
		c-27,2-86,7-130,10s-98,8-120,10s-79,7-127,11l-88,6l-1,34c-1,19-2,37-3,42c-1,4-6,52-10,107c-5,55-10,109-12,120
		c-1,11-8,83-14,160s-13,156-15,175s-7,69-10,110s-8,91-10,110s-6,64-9,100s-12,137-21,225c-8,88-21,241-30,340s-33,378-55,620
		c-53,584-50,554-55,605c-6,56-6,61-60,665c-25,275-47,532-50,570c-3,39-8,86-10,105s-7,69-10,110s-10,116-15,165
		c-5,50-12,122-15,160c-3,39-8,90-10,115c-3,25-9,104-15,175c-6,72-13,149-16,172c-7,50-23,45,221,68c88,9,178,18,200,20
		c22,3,132,14,245,25c243,25,254,26,480,50C5041,13821,5257,13823,5380,13804z"/>
	<path class="st0" d="M13301,20674l-1-1231l28,3c15,2,94,11,177,20c82,8,151,17,152,18s-11,89-27,196s-40,274-54,370s-42,283-61,415
		c-20,132-47,317-60,410c-14,94-29,199-35,235c-5,36-32,223-60,415c-28,193-52,357-54,365S13302,21351,13301,20674z"/>
	<path class="st0" d="M6785,22351c-50-6-50-6-47-41c7-98,33-443,37-495c3-33,14-179,25-325s22-290,25-320c2-30,7-88,10-127
		c3-40,7-106,10-145c3-40,8-98,10-128s7-86,10-125c3-38,10-124,15-190s10-132,10-146c0-24,5-26,88-42c81-16,93-16,141-1
		c56,16,123,69,147,115c8,16,26,61,40,100c24,67,26,80,19,178c-4,58-8,113-10,121s-6,58-10,110c-3,52-13,167-21,255s-16,189-20,225
		c-20,248-60,564-86,689c-21,100-23,106-77,166C6980,22360,6953,22371,6785,22351z"/>
	<path class="st0" d="M14745,16672c-106-8-617-61-619-64c-3-4,11-198,19-252c2-21,8-81,11-134l7-94l55,6c30,4,168,18,306,31
		c303,30,391,46,474,86c90,44,117,87,116,188c0,97-26,150-90,191c-47,29-152,53-209,48C14799,16676,14767,16674,14745,16672z"/>
	<path class="st0" d="M9671,16162l-243-26l7-85c4-47,8-99,11-116c2-16,10-109,19-205c8-96,18-195,20-220c3-25,14-153,25-285
		c12-132,23-246,26-254c4-13,71-12,189,4c17,2,82,9,145,15c188,18,277,37,366,80c172,83,267,244,281,476c10,171-34,363-110,476
		C10298,16185,10153,16213,9671,16162z"/>
	<path class="st0" d="M7318,15970c-158-28-275-86-374-185c-111-110-164-248-164-423c1-323,137-538,397-629c72-25,90-27,223-27
		c171,0,245,16,370,76c66,31,101,57,155,112c128,130,167,240,161,455c-3,153-17,217-71,328c-63,129-162,215-313,271
		c-57,21-87,25-202,28C7426,15977,7344,15975,7318,15970z"/>
	<path class="st0" d="M14733,14077c-54-6-80-13-78-20s9-73,15-147s13-153,15-175c3-22,23-245,46-495c22-250,42-456,44-458
		c10-11,189,19,234,39c55,23,105,73,127,126c43,102,59,282,44,498c-22,314-68,484-156,569C14957,14079,14891,14094,14733,14077z"/>
	<path class="st0" d="M7622,12285c-24-270-27-303-37-395c-3-30-12-136-20-235s-17-198-20-220c-2-22-7-76-10-120c-4-44-10-118-15-164
		c-5-47-9-86-7-87c4-4,346,32,352,38c6,5-5,76-95,648c-28,179-55,350-60,380s-18,116-30,190s-24,155-28,180
		C7646,12534,7639,12483,7622,12285z"/>
	<path class="st0" d="M4763,13067l-73-9v-31c0-18,7-102,15-187s17-184,20-220s8-85,10-110c3-25,7-72,10-105s8-78,10-100
		s14-152,26-290c12-146,26-255,33-261c20-19,201,10,266,43c140,72,176,250,135,671C5164,13005,5085,13109,4763,13067z"/>
	<path class="st0" d="M5025,11038c-49-4-105-10-123-13c-30-6-32-8-28-38c3-18,10-90,16-162c6-71,12-150,15-175c6-68,14-157,20-235
		c4-38,10-113,15-165c11-114,14-146,40-450c22-251,28-301,35-309c3-2,49,1,102,8c166,20,251,81,291,210c47,152-8,948-80,1166
		C5281,11017,5213,11053,5025,11038z"/>
	<path class="st0" d="M21635,12443c-565-58-1014-475-1099-1020c-17-106-13-288,7-393c78-396,365-723,743-849c293-97,638-74,907,60
		c450,225,715,686,675,1174c-36,438-309,800-723,956c-56,21-140,45-186,53C21867,12440,21699,12450,21635,12443z M21849,12220
		c462-58,802-442,802-906c1-291-114-540-340-737c-214-187-515-272-801-227c-448,71-777,468-765,925c6,248,92,455,262,635
		C21232,12148,21535,12259,21849,12220z"/>
	<path class="st0" d="M21820,11925c-8-2-163-23-343-46l-328-43l5-26c3-14,8-52,11-85s8-76,10-95c3-19,12-101,20-182
		c30-296,45-444,50-478c2-19,7-60,10-90s8-71,10-90c6-43,18-170,18-187c0-7,4-13,9-13c15,0,233,32,236,35c1,1-9,111-23,245
		c-14,133-25,251-23,263c2,14,12,21,33,24c17,2,60,8,97,13c120,18,97,37,282-233l167-244l122,18c67,10,132,19,144,21
		c19,3,0,32-158,242c-98,132-176,243-172,246c5,4,36,15,71,25c101,30,173,89,209,172c26,60,22,202-7,294c-20,62-33,83-80,131
		c-71,71-123,88-259,87C21878,11928,21828,11926,21820,11925z M21977,11714c51-39,65-68,66-136c1-100-39-152-133-178
		c-37-9-403-60-437-60c-18,0-21,11-32,123c-7,67-15,145-18,173l-5,50l94,13c51,6,136,18,188,26C21829,11744,21943,11739,21977,11714
		z"/>
	<path class="st0" d="M16235,7264c-45-11-112-39-139-58c-15-12-71-73-124-136c-287-345-528-494-932-574c-371-73-669-49-927,74
		c-181,86-314,187-568,431c-77,74-158,143-179,153c-126,60-350-62-436-238c-28-56-33-78-34-139c-1-92,17-129,127-267
		c331-414,758-658,1271-726c427-57,1053,37,1481,223c348,151,639,411,784,700c51,102,91,210,95,258c10,121-85,237-228,280
		C16376,7260,16266,7271,16235,7264z"/>
	<path class="st0" d="M10590,6690c-101-18-138-44-246-172c-219-260-329-355-529-456c-174-86-333-130-610-167c-250-33-491-4-695,84
		c-185,80-328,184-577,421c-192,183-227,205-311,197c-122-13-277-127-336-249c-34-70-44-159-25-225c28-103,285-394,469-534
		c356-269,785-404,1245-393c337,8,690,70,990,174c517,179,880,514,1025,944c43,128,10,232-100,307C10807,6678,10685,6706,10590,6690
		z"/>
	<path class="st0" d="M11947,6623c-129-29-248-116-296-216c-31-64-38-157-18-228c17-56,106-269,245-584c43-99,154-351,247-560
		c480-1089,662-1619,591-1721c-8-11-50-37-93-57c-230-108-508-124-963-55c-74,11-178,21-230,21c-85,2-100-1-146-25
		c-104-55-173-172-181-312c-15-232,133-373,408-391c52-3,108-8,124-10c17-2,82-7,145-11s126-8,140-10c84-11,589-4,715,11
		c379,44,649,137,870,302c100,75,110,97,109,243c-1,166-37,338-141,680c-134,442-332,966-761,2015c-87,215-180,446-206,514
		c-69,180-83,207-148,276c-63,68-136,107-229,125C12065,6642,12024,6641,11947,6623z"/>
	<path class="st0" d="M15441,3328c-76-12-165-54-206-99c-36-40-48-73-125-354c-163-586-446-1018-885-1344
		c-456-339-1038-543-1820-636c-425-51-922-39-1295,30c-470,87-897,285-1227,569c-253,218-438,465-631,846c-58,113-116,220-129,238
		c-47,63-108,113-182,150c-70,35-81,37-166,37c-83-1-97-4-168-38c-190-90-300-289-269-485c18-113,233-523,410-783
		c530-778,1327-1259,2329-1404c380-55,894-57,1313-5c41,5,98,12,125,15c596,72,1263,290,1742,570c538,315,979,743,1298,1260
		c268,434,465,990,415,1175C15921,3253,15692,3365,15441,3328z"/>
</g>
</svg>
